<svg xmlns="http://www.w3.org/2000/svg" fill="none" viewBox="0 0 24 24" id="Key-Vertical--Streamline-Rounded-Material" height="24" width="24">
  <desc>
    Key Vertical Streamline Icon: https://streamlinehq.com
  </desc>
  <path fill="#6c7280" d="M10.8 7c0 -0.46665 0.16665 -0.86665 0.5 -1.2 0.33335 -0.33335 0.73335 -0.5 1.2 -0.5s0.86665 0.16665 1.2 0.5c0.33335 0.33335 0.5 0.73335 0.5 1.2s-0.16665 0.86665 -0.5 1.2c-0.33335 0.33335 -0.73335 0.5 -1.2 0.5s-0.86665 -0.16665 -1.2 -0.5c-0.33335 -0.33335 -0.5 -0.73335 -0.5 -1.2ZM6.5 7c0 -1.66665 0.58335 -3.083335 1.75 -4.25S10.83335 1 12.5 1c1.66665 0 3.08335 0.583335 4.25 1.75C17.91665 3.916665 18.5 5.33335 18.5 7c0 1.2 -0.28335 2.25 -0.85 3.15 -0.56665 0.9 -1.425 1.60835 -2.575 2.125v8.6c0 0.1 -0.01665 0.19165 -0.05 0.275 -0.03335 0.08335 -0.09165 0.16665 -0.175 0.25l-2.05 2.05c-0.08335 0.08335 -0.17085 0.14165 -0.2625 0.175 -0.09165 0.03335 -0.1875 0.05 -0.2875 0.05 -0.1 0 -0.19165 -0.02085 -0.275 -0.0625 -0.08335 -0.04165 -0.16665 -0.10415 -0.25 -0.1875L8.85 20.3c-0.06665 -0.06665 -0.11665 -0.14165 -0.15 -0.225 -0.03335 -0.08335 -0.05 -0.16665 -0.05 -0.25 0 -0.08335 0.00835 -0.1625 0.025 -0.2375 0.01665 -0.075 0.05 -0.15415 0.1 -0.2375l1.25 -1.725 -1.275 -1.75c-0.05 -0.06665 -0.08335 -0.1375 -0.1 -0.2125 -0.01665 -0.075 -0.025 -0.15415 -0.025 -0.2375 0 -0.08335 0.0125 -0.1625 0.0375 -0.2375 0.025 -0.075 0.0625 -0.14585 0.1125 -0.2125l1.15 -1.425v-1.275c-1 -0.41665 -1.82085 -1.07085 -2.4625 -1.9625C6.82085 9.42085 6.5 8.31665 6.5 7Zm1.5 0.025c0 0.96665 0.32085 1.85835 0.9625 2.675 0.64165 0.81665 1.4625 1.34165 2.4625 1.575v2.85l-1.125 1.35c0 -0.01665 0 -0.01665 0 0l1.575 2.2 -1.55 2.05 1.975 2.125 1.275 -1.275v-9.3c0.93335 -0.2 1.7375 -0.7 2.4125 -1.5S17 8.05835 17 7.025c0 -1.25 -0.4375 -2.3125 -1.3125 -3.1875S13.75 2.525 12.5 2.525s-2.3125 0.4375 -3.1875 1.3125S8 5.775 8 7.025Z" stroke-width="0.5"></path>
</svg>