<svg xmlns="http://www.w3.org/2000/svg" fill="none" viewBox="0 0 24 24" id="Person--Streamline-Rounded-Material" height="24" width="24">
  <desc>
    Person Streamline Icon: https://streamlinehq.com
  </desc>
  <path fill="#6c7280" d="M12 11.9751c-1.1 0 -2 -0.35 -2.7 -1.05 -0.7 -0.7 -1.05 -1.6 -1.05 -2.7s0.35 -2 1.05 -2.7c0.7 -0.7 1.6 -1.05 2.7 -1.05s2 0.35 2.7 1.05c0.7 0.7 1.05 1.6 1.05 2.7s-0.35 2 -1.05 2.7c-0.7 0.7 -1.6 1.05 -2.7 1.05Zm-8 6.525v-0.85c0 -0.63335 0.158335 -1.175 0.475 -1.625 0.316665 -0.45 0.725 -0.79165 1.225 -1.025 1.11665 -0.5 2.1875 -0.875 3.2125 -1.125s2.05415 -0.375 3.0875 -0.375 2.05835 0.12915 3.075 0.3875c1.01665 0.25835 2.08265 0.63075 3.198 1.11725 0.52165 0.2355 0.9399 0.5769 1.25475 1.02425 0.31485 0.44735 0.47225 0.98765 0.47225 1.621v0.85c0 0.4125 -0.14685 0.7656 -0.4405 1.05925 -0.29385 0.29385 -0.647 0.44075 -1.0595 0.44075H5.5c-0.4125 0 -0.765585 -0.1469 -1.05925 -0.44075C4.146915 19.2657 4 18.9126 4 18.5001Zm1.5 0h13v-0.85c0 -0.26665 -0.07915 -0.52085 -0.2375 -0.7625 -0.15835 -0.24165 -0.35415 -0.42085 -0.5875 -0.5375 -1.06665 -0.51665 -2.04165 -0.87085 -2.925 -1.0625 -0.88335 -0.19165 -1.8 -0.2875 -2.75 -0.2875s-1.875 0.09585 -2.775 0.2875c-0.9 0.19165 -1.875 0.54585 -2.925 1.0625 -0.23335 0.11665 -0.425 0.29585 -0.575 0.5375 -0.15 0.24165 -0.225 0.49585 -0.225 0.7625v0.85Zm6.5 -8.025c0.65 0 1.1875 -0.2125 1.6125 -0.6375 0.425 -0.425 0.6375 -0.9625 0.6375 -1.6125s-0.2125 -1.1875 -0.6375 -1.6125c-0.425 -0.425 -0.9625 -0.6375 -1.6125 -0.6375s-1.1875 0.2125 -1.6125 0.6375c-0.425 0.425 -0.6375 0.9625 -0.6375 1.6125s0.2125 1.1875 0.6375 1.6125c0.425 0.425 0.9625 0.6375 1.6125 0.6375Z" stroke-width="0.5"></path>
</svg>